<?xml version="1.0" encoding="utf-8" standalone="no"?>
<!DOCTYPE svg PUBLIC "-//W3C//DTD SVG 1.1//EN"
  "http://www.w3.org/Graphics/SVG/1.1/DTD/svg11.dtd">
<!-- Created with matplotlib (http://matplotlib.org/) -->
<svg height="252.018125pt" version="1.1" viewBox="0 0 377.830862 252.018125" width="377.830862pt" xmlns="http://www.w3.org/2000/svg" xmlns:xlink="http://www.w3.org/1999/xlink">
 <defs>
  <style type="text/css">
*{stroke-linecap:butt;stroke-linejoin:round;}
  </style>
 </defs>
 <g id="figure_1">
  <g id="patch_1">
   <path d="M -0 252.018125 
L 377.830862 252.018125 
L 377.830862 0 
L -0 0 
z
" style="fill:none;"/>
  </g>
  <g id="axes_1">
   <g id="patch_2">
    <path d="M 26.925 228.14 
L 361.725 228.14 
L 361.725 10.7 
L 26.925 10.7 
z
" style="fill:#ffffff;"/>
   </g>
   <g id="matplotlib.axis_1">
    <g id="xtick_1">
     <g id="line2d_1">
      <defs>
       <path d="M 0 0 
L 0 3.5 
" id="mbf449e386d" style="stroke:#000000;stroke-width:0.8;"/>
      </defs>
      <g>
       <use style="stroke:#000000;stroke-width:0.8;" x="42.143182" xlink:href="#mbf449e386d" y="228.14"/>
      </g>
     </g>
     <g id="text_1">
      <!-- 0 -->
      <defs>
       <path d="M 31.78125 66.40625 
Q 24.171875 66.40625 20.328125 58.90625 
Q 16.5 51.421875 16.5 36.375 
Q 16.5 21.390625 20.328125 13.890625 
Q 24.171875 6.390625 31.78125 6.390625 
Q 39.453125 6.390625 43.28125 13.890625 
Q 47.125 21.390625 47.125 36.375 
Q 47.125 51.421875 43.28125 58.90625 
Q 39.453125 66.40625 31.78125 66.40625 
z
M 31.78125 74.21875 
Q 44.046875 74.21875 50.515625 64.515625 
Q 56.984375 54.828125 56.984375 36.375 
Q 56.984375 17.96875 50.515625 8.265625 
Q 44.046875 -1.421875 31.78125 -1.421875 
Q 19.53125 -1.421875 13.0625 8.265625 
Q 6.59375 17.96875 6.59375 36.375 
Q 6.59375 54.828125 13.0625 64.515625 
Q 19.53125 74.21875 31.78125 74.21875 
z
" id="DejaVuSans-30"/>
      </defs>
      <g transform="translate(38.961932 242.738437)scale(0.1 -0.1)">
       <use xlink:href="#DejaVuSans-30"/>
      </g>
     </g>
    </g>
    <g id="xtick_2">
     <g id="line2d_2">
      <g>
       <use style="stroke:#000000;stroke-width:0.8;" x="87.7066" xlink:href="#mbf449e386d" y="228.14"/>
      </g>
     </g>
     <g id="text_2">
      <!-- 25 -->
      <defs>
       <path d="M 19.1875 8.296875 
L 53.609375 8.296875 
L 53.609375 0 
L 7.328125 0 
L 7.328125 8.296875 
Q 12.9375 14.109375 22.625 23.890625 
Q 32.328125 33.6875 34.8125 36.53125 
Q 39.546875 41.84375 41.421875 45.53125 
Q 43.3125 49.21875 43.3125 52.78125 
Q 43.3125 58.59375 39.234375 62.25 
Q 35.15625 65.921875 28.609375 65.921875 
Q 23.96875 65.921875 18.8125 64.3125 
Q 13.671875 62.703125 7.8125 59.421875 
L 7.8125 69.390625 
Q 13.765625 71.78125 18.9375 73 
Q 24.125 74.21875 28.421875 74.21875 
Q 39.75 74.21875 46.484375 68.546875 
Q 53.21875 62.890625 53.21875 53.421875 
Q 53.21875 48.921875 51.53125 44.890625 
Q 49.859375 40.875 45.40625 35.40625 
Q 44.1875 33.984375 37.640625 27.21875 
Q 31.109375 20.453125 19.1875 8.296875 
z
" id="DejaVuSans-32"/>
       <path d="M 10.796875 72.90625 
L 49.515625 72.90625 
L 49.515625 64.59375 
L 19.828125 64.59375 
L 19.828125 46.734375 
Q 21.96875 47.46875 24.109375 47.828125 
Q 26.265625 48.1875 28.421875 48.1875 
Q 40.625 48.1875 47.75 41.5 
Q 54.890625 34.8125 54.890625 23.390625 
Q 54.890625 11.625 47.5625 5.09375 
Q 40.234375 -1.421875 26.90625 -1.421875 
Q 22.3125 -1.421875 17.546875 -0.640625 
Q 12.796875 0.140625 7.71875 1.703125 
L 7.71875 11.625 
Q 12.109375 9.234375 16.796875 8.0625 
Q 21.484375 6.890625 26.703125 6.890625 
Q 35.15625 6.890625 40.078125 11.328125 
Q 45.015625 15.765625 45.015625 23.390625 
Q 45.015625 31 40.078125 35.4375 
Q 35.15625 39.890625 26.703125 39.890625 
Q 22.75 39.890625 18.8125 39.015625 
Q 14.890625 38.140625 10.796875 36.28125 
z
" id="DejaVuSans-35"/>
      </defs>
      <g transform="translate(81.3441 242.738437)scale(0.1 -0.1)">
       <use xlink:href="#DejaVuSans-32"/>
       <use x="63.623047" xlink:href="#DejaVuSans-35"/>
      </g>
     </g>
    </g>
    <g id="xtick_3">
     <g id="line2d_3">
      <g>
       <use style="stroke:#000000;stroke-width:0.8;" x="133.270019" xlink:href="#mbf449e386d" y="228.14"/>
      </g>
     </g>
     <g id="text_3">
      <!-- 50 -->
      <g transform="translate(126.907519 242.738437)scale(0.1 -0.1)">
       <use xlink:href="#DejaVuSans-35"/>
       <use x="63.623047" xlink:href="#DejaVuSans-30"/>
      </g>
     </g>
    </g>
    <g id="xtick_4">
     <g id="line2d_4">
      <g>
       <use style="stroke:#000000;stroke-width:0.8;" x="178.833438" xlink:href="#mbf449e386d" y="228.14"/>
      </g>
     </g>
     <g id="text_4">
      <!-- 75 -->
      <defs>
       <path d="M 8.203125 72.90625 
L 55.078125 72.90625 
L 55.078125 68.703125 
L 28.609375 0 
L 18.3125 0 
L 43.21875 64.59375 
L 8.203125 64.59375 
z
" id="DejaVuSans-37"/>
      </defs>
      <g transform="translate(172.470938 242.738437)scale(0.1 -0.1)">
       <use xlink:href="#DejaVuSans-37"/>
       <use x="63.623047" xlink:href="#DejaVuSans-35"/>
      </g>
     </g>
    </g>
    <g id="xtick_5">
     <g id="line2d_5">
      <g>
       <use style="stroke:#000000;stroke-width:0.8;" x="224.396856" xlink:href="#mbf449e386d" y="228.14"/>
      </g>
     </g>
     <g id="text_5">
      <!-- 100 -->
      <defs>
       <path d="M 12.40625 8.296875 
L 28.515625 8.296875 
L 28.515625 63.921875 
L 10.984375 60.40625 
L 10.984375 69.390625 
L 28.421875 72.90625 
L 38.28125 72.90625 
L 38.28125 8.296875 
L 54.390625 8.296875 
L 54.390625 0 
L 12.40625 0 
z
" id="DejaVuSans-31"/>
      </defs>
      <g transform="translate(214.853106 242.738437)scale(0.1 -0.1)">
       <use xlink:href="#DejaVuSans-31"/>
       <use x="63.623047" xlink:href="#DejaVuSans-30"/>
       <use x="127.246094" xlink:href="#DejaVuSans-30"/>
      </g>
     </g>
    </g>
    <g id="xtick_6">
     <g id="line2d_6">
      <g>
       <use style="stroke:#000000;stroke-width:0.8;" x="269.960275" xlink:href="#mbf449e386d" y="228.14"/>
      </g>
     </g>
     <g id="text_6">
      <!-- 125 -->
      <g transform="translate(260.416525 242.738437)scale(0.1 -0.1)">
       <use xlink:href="#DejaVuSans-31"/>
       <use x="63.623047" xlink:href="#DejaVuSans-32"/>
       <use x="127.246094" xlink:href="#DejaVuSans-35"/>
      </g>
     </g>
    </g>
    <g id="xtick_7">
     <g id="line2d_7">
      <g>
       <use style="stroke:#000000;stroke-width:0.8;" x="315.523694" xlink:href="#mbf449e386d" y="228.14"/>
      </g>
     </g>
     <g id="text_7">
      <!-- 150 -->
      <g transform="translate(305.979944 242.738437)scale(0.1 -0.1)">
       <use xlink:href="#DejaVuSans-31"/>
       <use x="63.623047" xlink:href="#DejaVuSans-35"/>
       <use x="127.246094" xlink:href="#DejaVuSans-30"/>
      </g>
     </g>
    </g>
    <g id="xtick_8">
     <g id="line2d_8">
      <g>
       <use style="stroke:#000000;stroke-width:0.8;" x="361.087112" xlink:href="#mbf449e386d" y="228.14"/>
      </g>
     </g>
     <g id="text_8">
      <!-- 175 -->
      <g transform="translate(351.543362 242.738437)scale(0.1 -0.1)">
       <use xlink:href="#DejaVuSans-31"/>
       <use x="63.623047" xlink:href="#DejaVuSans-37"/>
       <use x="127.246094" xlink:href="#DejaVuSans-35"/>
      </g>
     </g>
    </g>
   </g>
   <g id="matplotlib.axis_2">
    <g id="ytick_1">
     <g id="line2d_9">
      <defs>
       <path d="M 0 0 
L -3.5 0 
" id="meaef486c6c" style="stroke:#000000;stroke-width:0.8;"/>
      </defs>
      <g>
       <use style="stroke:#000000;stroke-width:0.8;" x="26.925" xlink:href="#meaef486c6c" y="218.256364"/>
      </g>
     </g>
     <g id="text_9">
      <!-- 0 -->
      <g transform="translate(13.5625 222.055582)scale(0.1 -0.1)">
       <use xlink:href="#DejaVuSans-30"/>
      </g>
     </g>
    </g>
    <g id="ytick_2">
     <g id="line2d_10">
      <g>
       <use style="stroke:#000000;stroke-width:0.8;" x="26.925" xlink:href="#meaef486c6c" y="191.325474"/>
      </g>
     </g>
     <g id="text_10">
      <!-- 2 -->
      <g transform="translate(13.5625 195.124693)scale(0.1 -0.1)">
       <use xlink:href="#DejaVuSans-32"/>
      </g>
     </g>
    </g>
    <g id="ytick_3">
     <g id="line2d_11">
      <g>
       <use style="stroke:#000000;stroke-width:0.8;" x="26.925" xlink:href="#meaef486c6c" y="164.394585"/>
      </g>
     </g>
     <g id="text_11">
      <!-- 4 -->
      <defs>
       <path d="M 37.796875 64.3125 
L 12.890625 25.390625 
L 37.796875 25.390625 
z
M 35.203125 72.90625 
L 47.609375 72.90625 
L 47.609375 25.390625 
L 58.015625 25.390625 
L 58.015625 17.1875 
L 47.609375 17.1875 
L 47.609375 0 
L 37.796875 0 
L 37.796875 17.1875 
L 4.890625 17.1875 
L 4.890625 26.703125 
z
" id="DejaVuSans-34"/>
      </defs>
      <g transform="translate(13.5625 168.193804)scale(0.1 -0.1)">
       <use xlink:href="#DejaVuSans-34"/>
      </g>
     </g>
    </g>
    <g id="ytick_4">
     <g id="line2d_12">
      <g>
       <use style="stroke:#000000;stroke-width:0.8;" x="26.925" xlink:href="#meaef486c6c" y="137.463696"/>
      </g>
     </g>
     <g id="text_12">
      <!-- 6 -->
      <defs>
       <path d="M 33.015625 40.375 
Q 26.375 40.375 22.484375 35.828125 
Q 18.609375 31.296875 18.609375 23.390625 
Q 18.609375 15.53125 22.484375 10.953125 
Q 26.375 6.390625 33.015625 6.390625 
Q 39.65625 6.390625 43.53125 10.953125 
Q 47.40625 15.53125 47.40625 23.390625 
Q 47.40625 31.296875 43.53125 35.828125 
Q 39.65625 40.375 33.015625 40.375 
z
M 52.59375 71.296875 
L 52.59375 62.3125 
Q 48.875 64.0625 45.09375 64.984375 
Q 41.3125 65.921875 37.59375 65.921875 
Q 27.828125 65.921875 22.671875 59.328125 
Q 17.53125 52.734375 16.796875 39.40625 
Q 19.671875 43.65625 24.015625 45.921875 
Q 28.375 48.1875 33.59375 48.1875 
Q 44.578125 48.1875 50.953125 41.515625 
Q 57.328125 34.859375 57.328125 23.390625 
Q 57.328125 12.15625 50.6875 5.359375 
Q 44.046875 -1.421875 33.015625 -1.421875 
Q 20.359375 -1.421875 13.671875 8.265625 
Q 6.984375 17.96875 6.984375 36.375 
Q 6.984375 53.65625 15.1875 63.9375 
Q 23.390625 74.21875 37.203125 74.21875 
Q 40.921875 74.21875 44.703125 73.484375 
Q 48.484375 72.75 52.59375 71.296875 
z
" id="DejaVuSans-36"/>
      </defs>
      <g transform="translate(13.5625 141.262915)scale(0.1 -0.1)">
       <use xlink:href="#DejaVuSans-36"/>
      </g>
     </g>
    </g>
    <g id="ytick_5">
     <g id="line2d_13">
      <g>
       <use style="stroke:#000000;stroke-width:0.8;" x="26.925" xlink:href="#meaef486c6c" y="110.532807"/>
      </g>
     </g>
     <g id="text_13">
      <!-- 8 -->
      <defs>
       <path d="M 31.78125 34.625 
Q 24.75 34.625 20.71875 30.859375 
Q 16.703125 27.09375 16.703125 20.515625 
Q 16.703125 13.921875 20.71875 10.15625 
Q 24.75 6.390625 31.78125 6.390625 
Q 38.8125 6.390625 42.859375 10.171875 
Q 46.921875 13.96875 46.921875 20.515625 
Q 46.921875 27.09375 42.890625 30.859375 
Q 38.875 34.625 31.78125 34.625 
z
M 21.921875 38.8125 
Q 15.578125 40.375 12.03125 44.71875 
Q 8.5 49.078125 8.5 55.328125 
Q 8.5 64.0625 14.71875 69.140625 
Q 20.953125 74.21875 31.78125 74.21875 
Q 42.671875 74.21875 48.875 69.140625 
Q 55.078125 64.0625 55.078125 55.328125 
Q 55.078125 49.078125 51.53125 44.71875 
Q 48 40.375 41.703125 38.8125 
Q 48.828125 37.15625 52.796875 32.3125 
Q 56.78125 27.484375 56.78125 20.515625 
Q 56.78125 9.90625 50.3125 4.234375 
Q 43.84375 -1.421875 31.78125 -1.421875 
Q 19.734375 -1.421875 13.25 4.234375 
Q 6.78125 9.90625 6.78125 20.515625 
Q 6.78125 27.484375 10.78125 32.3125 
Q 14.796875 37.15625 21.921875 38.8125 
z
M 18.3125 54.390625 
Q 18.3125 48.734375 21.84375 45.5625 
Q 25.390625 42.390625 31.78125 42.390625 
Q 38.140625 42.390625 41.71875 45.5625 
Q 45.3125 48.734375 45.3125 54.390625 
Q 45.3125 60.0625 41.71875 63.234375 
Q 38.140625 66.40625 31.78125 66.40625 
Q 25.390625 66.40625 21.84375 63.234375 
Q 18.3125 60.0625 18.3125 54.390625 
z
" id="DejaVuSans-38"/>
      </defs>
      <g transform="translate(13.5625 114.332025)scale(0.1 -0.1)">
       <use xlink:href="#DejaVuSans-38"/>
      </g>
     </g>
    </g>
    <g id="ytick_6">
     <g id="line2d_14">
      <g>
       <use style="stroke:#000000;stroke-width:0.8;" x="26.925" xlink:href="#meaef486c6c" y="83.601917"/>
      </g>
     </g>
     <g id="text_14">
      <!-- 10 -->
      <g transform="translate(7.2 87.401136)scale(0.1 -0.1)">
       <use xlink:href="#DejaVuSans-31"/>
       <use x="63.623047" xlink:href="#DejaVuSans-30"/>
      </g>
     </g>
    </g>
    <g id="ytick_7">
     <g id="line2d_15">
      <g>
       <use style="stroke:#000000;stroke-width:0.8;" x="26.925" xlink:href="#meaef486c6c" y="56.671028"/>
      </g>
     </g>
     <g id="text_15">
      <!-- 12 -->
      <g transform="translate(7.2 60.470247)scale(0.1 -0.1)">
       <use xlink:href="#DejaVuSans-31"/>
       <use x="63.623047" xlink:href="#DejaVuSans-32"/>
      </g>
     </g>
    </g>
    <g id="ytick_8">
     <g id="line2d_16">
      <g>
       <use style="stroke:#000000;stroke-width:0.8;" x="26.925" xlink:href="#meaef486c6c" y="29.740139"/>
      </g>
     </g>
     <g id="text_16">
      <!-- 14 -->
      <g transform="translate(7.2 33.539357)scale(0.1 -0.1)">
       <use xlink:href="#DejaVuSans-31"/>
       <use x="63.623047" xlink:href="#DejaVuSans-34"/>
      </g>
     </g>
    </g>
   </g>
   <g id="line2d_17">
    <path clip-path="url(#p7b8569c87c)" d="M 42.143182 131.673555 
L 43.965719 42.397657 
L 45.788255 196.980961 
L 47.610792 169.3768 
L 49.433329 119.958618 
L 51.255866 139.348858 
L 53.078402 69.328546 
L 54.900939 179.610538 
L 56.723476 199.67405 
L 58.546013 200.88594 
L 60.368549 218.256364 
L 62.191086 33.779772 
L 64.013623 110.532807 
L 65.836159 196.173034 
L 67.658696 210.850369 
L 69.481233 198.596814 
L 71.30377 191.19082 
L 73.126306 131.673555 
L 74.948843 121.170508 
L 76.77138 203.848338 
L 78.593917 201.693867 
L 80.416453 93.431692 
L 82.23899 190.382893 
L 84.061527 208.695898 
L 85.884064 215.42862 
L 87.7066 132.346827 
L 89.529137 106.358519 
L 91.351674 201.289903 
L 93.174211 170.857999 
L 94.996747 181.361045 
L 96.819284 212.466222 
L 98.641821 199.000778 
L 100.464358 137.867659 
L 102.286894 218.256364 
L 104.109431 99.087179 
L 105.931968 86.69897 
L 107.754505 145.004345 
L 109.577041 129.788392 
L 111.399578 211.254332 
L 113.222115 195.095799 
L 115.044652 123.728942 
L 116.867188 156.180664 
L 118.689725 67.982001 
L 120.512262 192.133401 
L 122.334799 211.927605 
L 124.157335 217.044474 
L 125.979872 208.022626 
L 127.802409 81.851409 
L 129.624946 171.127307 
L 131.447482 100.972341 
L 133.270019 198.46216 
L 135.092556 203.579029 
L 136.915093 207.887971 
L 138.737629 194.557181 
L 140.560166 42.532311 
L 142.382703 210.985024 
L 144.20524 158.873753 
L 146.027776 207.618662 
L 147.850313 191.998747 
L 149.67285 178.802611 
L 151.495386 93.431692 
L 153.317923 129.653738 
L 155.14046 131.5389 
L 156.962997 114.168477 
L 158.785533 91.54653 
L 160.60807 184.996715 
L 162.430607 218.256364 
L 164.253144 55.324484 
L 166.07568 62.999787 
L 167.898217 206.137463 
L 169.720754 145.677617 
L 171.543291 65.82753 
L 173.365827 205.329537 
L 177.010901 113.225895 
L 178.833438 218.256364 
L 180.655974 218.256364 
L 182.478511 123.459633 
L 186.123585 208.561243 
L 187.946121 136.117151 
L 189.768658 176.64814 
L 191.591195 173.416433 
L 193.413732 175.301595 
L 195.236268 173.147124 
L 197.058805 175.43625 
L 198.881342 203.444375 
L 200.703879 173.820396 
L 202.526415 54.247248 
L 204.348952 199.943359 
L 206.171489 189.036349 
L 207.994026 194.691836 
L 209.816562 139.752821 
L 211.639099 197.25027 
L 213.461636 156.046009 
L 215.284173 205.464191 
L 217.106709 29.874793 
L 218.929246 218.256364 
L 220.751783 84.140535 
L 222.57432 189.440312 
L 224.396856 211.254332 
L 226.219393 79.023666 
L 228.04193 196.307689 
L 229.864467 129.249775 
L 231.687003 152.544994 
L 233.50954 188.901694 
L 235.332077 83.332608 
L 237.154614 126.152722 
L 238.97715 158.739098 
L 240.799687 119.823963 
L 242.622224 66.904766 
L 244.44476 124.536869 
L 246.267297 192.672019 
L 248.089834 108.378335 
L 249.912371 69.328546 
L 251.734907 84.140535 
L 255.379981 192.133401 
L 257.202518 22.064835 
L 259.025054 169.242145 
L 260.847591 142.176601 
L 262.670128 118.612073 
L 264.492665 20.583636 
L 266.315201 145.812271 
L 268.137738 210.042442 
L 269.960275 188.497731 
L 271.782812 195.499762 
L 273.605348 101.376304 
L 275.427885 151.602413 
L 277.250422 218.256364 
L 279.072959 185.400679 
L 280.895495 212.466222 
L 282.718032 192.133401 
L 284.540569 121.439817 
L 286.363106 215.967238 
L 288.185642 182.70759 
L 290.008179 198.596814 
L 291.830716 73.772143 
L 293.653253 82.524682 
L 295.475789 168.299564 
L 297.298326 213.812767 
L 299.120863 151.467758 
L 300.9434 25.83516 
L 302.765936 196.307689 
L 304.588473 173.551087 
L 306.41101 197.788888 
L 308.233547 191.998747 
L 310.056083 176.917449 
L 311.87862 71.079054 
L 313.701157 203.175066 
L 315.523694 133.424062 
L 317.34623 184.188789 
L 319.168767 188.901694 
L 320.991304 189.440312 
L 322.813841 181.226391 
L 324.636377 132.616136 
L 326.458914 209.099861 
L 328.281451 197.25027 
L 330.103987 147.832088 
L 331.926524 202.232485 
L 333.749061 213.408804 
L 335.571598 155.103428 
L 337.394134 208.15728 
L 339.216671 218.256364 
L 341.039208 187.420495 
L 342.861745 184.458098 
L 344.684281 126.287377 
L 346.506818 165.067857 
L 346.506818 165.067857 
" style="fill:none;stroke:#1f77b4;stroke-linecap:square;stroke-width:1.5;"/>
   </g>
   <g id="line2d_18">
    <path clip-path="url(#p7b8569c87c)" d="M 42.143182 171.545997 
L 43.965719 159.457051 
L 45.788255 164.355017 
L 47.610792 146.734391 
L 49.433329 155.637481 
L 51.255866 165.971545 
L 53.078402 134.869358 
L 56.723476 167.747549 
L 58.546013 162.426673 
L 60.368549 164.604407 
L 62.191086 98.847677 
L 64.013623 173.418381 
L 65.836159 188.266952 
L 67.658696 186.288048 
L 69.481233 126.660219 
L 71.30377 151.151671 
L 73.126306 147.302415 
L 74.948843 144.064388 
L 76.77138 177.136483 
L 78.593917 167.010612 
L 80.416453 99.370847 
L 82.23899 171.933548 
L 84.061527 193.144506 
L 85.884064 185.138683 
L 87.7066 114.340739 
L 89.529137 156.463956 
L 91.351674 159.457051 
L 93.174211 185.21706 
L 94.996747 168.589106 
L 96.819284 174.584857 
L 98.641821 174.700022 
L 100.464358 164.214293 
L 102.286894 182.529931 
L 104.109431 179.503664 
L 105.931968 111.019846 
L 107.754505 100.294454 
L 109.577041 179.343317 
L 111.399578 147.966006 
L 113.222115 162.520921 
L 115.044652 137.115835 
L 116.867188 130.626916 
L 118.689725 168.467701 
L 120.512262 149.129007 
L 122.334799 154.935876 
L 124.157335 147.490728 
L 125.979872 142.943331 
L 127.802409 175.099493 
L 129.624946 190.805037 
L 131.447482 160.023946 
L 133.270019 160.135577 
L 135.092556 161.417514 
L 136.915093 191.720588 
L 138.737629 150.501451 
L 140.560166 122.469294 
L 142.382703 162.639088 
L 144.20524 141.387542 
L 146.027776 170.79501 
L 147.850313 167.479187 
L 149.67285 143.982813 
L 151.495386 168.144564 
L 153.317923 148.518455 
L 155.14046 146.770575 
L 156.962997 200.536397 
L 158.785533 156.344721 
L 160.60807 176.114125 
L 162.430607 152.320937 
L 164.253144 136.447241 
L 166.07568 127.44109 
L 167.898217 165.364662 
L 169.720754 128.054172 
L 171.543291 143.132119 
L 173.365827 136.059136 
L 175.188364 160.152578 
L 177.010901 113.809899 
L 178.833438 175.126856 
L 180.655974 148.800621 
L 182.478511 137.95907 
L 184.301048 164.24318 
L 186.123585 149.535193 
L 187.946121 181.048954 
L 189.768658 158.048939 
L 191.591195 152.735578 
L 193.413732 152.070025 
L 195.236268 142.549444 
L 197.058805 173.176858 
L 198.881342 148.00072 
L 200.703879 199.119559 
L 202.526415 150.86979 
L 204.348952 174.198148 
L 206.171489 192.302461 
L 207.994026 153.99218 
L 209.816562 163.277391 
L 211.639099 175.956814 
L 213.461636 149.340562 
L 215.284173 159.113181 
L 217.106709 143.002415 
L 218.929246 159.581985 
L 220.751783 121.23242 
L 222.57432 148.535519 
L 224.396856 180.01077 
L 226.219393 161.848761 
L 228.04193 197.819671 
L 229.864467 141.441176 
L 231.687003 169.424312 
L 233.50954 180.83917 
L 235.332077 174.100717 
L 237.154614 135.398378 
L 238.97715 164.051084 
L 240.799687 171.740828 
L 242.622224 148.969306 
L 244.44476 190.795942 
L 246.267297 167.882986 
L 248.089834 182.529931 
L 249.912371 125.658685 
L 251.734907 156.531423 
L 253.557444 157.376004 
L 255.379981 186.790039 
L 257.202518 132.198966 
L 259.025054 144.280963 
L 260.847591 140.184735 
L 262.670128 147.111919 
L 264.492665 126.371374 
L 266.315201 76.027877 
L 268.137738 193.998597 
L 269.960275 176.8632 
L 271.782812 168.029177 
L 273.605348 153.943761 
L 275.427885 136.886564 
L 277.250422 173.959936 
L 279.072959 134.67369 
L 280.895495 125.212002 
L 282.718032 163.755947 
L 284.540569 145.610568 
L 286.363106 177.40254 
L 288.185642 169.373392 
L 290.008179 170.493004 
L 291.830716 109.485615 
L 293.653253 134.704974 
L 295.475789 180.206816 
L 297.298326 152.354951 
L 299.120863 152.221827 
L 300.9434 134.800134 
L 302.765936 188.826264 
L 304.588473 168.790501 
L 306.41101 166.511555 
L 308.233547 172.366169 
L 310.056083 167.049381 
L 311.87862 130.626916 
L 313.701157 158.823442 
L 315.523694 114.462413 
L 317.34623 156.508913 
L 319.168767 149.184045 
L 320.991304 125.04596 
L 322.813841 155.987916 
L 324.636377 156.715679 
L 326.458914 179.137465 
L 328.281451 185.655691 
L 330.103987 177.011022 
L 331.926524 171.680418 
L 333.749061 186.310365 
L 335.571598 165.641186 
L 337.394134 186.507522 
L 339.216671 171.29154 
L 341.039208 200.139991 
L 342.861745 194.460643 
L 344.684281 107.469624 
L 346.506818 123.652026 
L 346.506818 123.652026 
" style="fill:none;stroke:#ff7f0e;stroke-linecap:square;stroke-width:1.5;"/>
   </g>
   <g id="patch_3">
    <path d="M 26.925 228.14 
L 26.925 10.7 
" style="fill:none;stroke:#000000;stroke-linecap:square;stroke-linejoin:miter;stroke-width:0.8;"/>
   </g>
   <g id="patch_4">
    <path d="M 361.725 228.14 
L 361.725 10.7 
" style="fill:none;stroke:#000000;stroke-linecap:square;stroke-linejoin:miter;stroke-width:0.8;"/>
   </g>
   <g id="patch_5">
    <path d="M 26.925 228.14 
L 361.725 228.14 
" style="fill:none;stroke:#000000;stroke-linecap:square;stroke-linejoin:miter;stroke-width:0.8;"/>
   </g>
   <g id="patch_6">
    <path d="M 26.925 10.7 
L 361.725 10.7 
" style="fill:none;stroke:#000000;stroke-linecap:square;stroke-linejoin:miter;stroke-width:0.8;"/>
   </g>
   <g id="legend_1">
    <g id="patch_7">
     <path d="M 279.9625 48.05625 
L 354.725 48.05625 
Q 356.725 48.05625 356.725 46.05625 
L 356.725 17.7 
Q 356.725 15.7 354.725 15.7 
L 279.9625 15.7 
Q 277.9625 15.7 277.9625 17.7 
L 277.9625 46.05625 
Q 277.9625 48.05625 279.9625 48.05625 
z
" style="fill:#ffffff;opacity:0.8;stroke:#cccccc;stroke-linejoin:miter;"/>
    </g>
    <g id="line2d_19">
     <path d="M 281.9625 23.798437 
L 301.9625 23.798437 
" style="fill:none;stroke:#1f77b4;stroke-linecap:square;stroke-width:1.5;"/>
    </g>
    <g id="line2d_20"/>
    <g id="text_17">
     <!-- real -->
     <defs>
      <path d="M 41.109375 46.296875 
Q 39.59375 47.171875 37.8125 47.578125 
Q 36.03125 48 33.890625 48 
Q 26.265625 48 22.1875 43.046875 
Q 18.109375 38.09375 18.109375 28.8125 
L 18.109375 0 
L 9.078125 0 
L 9.078125 54.6875 
L 18.109375 54.6875 
L 18.109375 46.1875 
Q 20.953125 51.171875 25.484375 53.578125 
Q 30.03125 56 36.53125 56 
Q 37.453125 56 38.578125 55.875 
Q 39.703125 55.765625 41.0625 55.515625 
z
" id="DejaVuSans-72"/>
      <path d="M 56.203125 29.59375 
L 56.203125 25.203125 
L 14.890625 25.203125 
Q 15.484375 15.921875 20.484375 11.0625 
Q 25.484375 6.203125 34.421875 6.203125 
Q 39.59375 6.203125 44.453125 7.46875 
Q 49.3125 8.734375 54.109375 11.28125 
L 54.109375 2.78125 
Q 49.265625 0.734375 44.1875 -0.34375 
Q 39.109375 -1.421875 33.890625 -1.421875 
Q 20.796875 -1.421875 13.15625 6.1875 
Q 5.515625 13.8125 5.515625 26.8125 
Q 5.515625 40.234375 12.765625 48.109375 
Q 20.015625 56 32.328125 56 
Q 43.359375 56 49.78125 48.890625 
Q 56.203125 41.796875 56.203125 29.59375 
z
M 47.21875 32.234375 
Q 47.125 39.59375 43.09375 43.984375 
Q 39.0625 48.390625 32.421875 48.390625 
Q 24.90625 48.390625 20.390625 44.140625 
Q 15.875 39.890625 15.1875 32.171875 
z
" id="DejaVuSans-65"/>
      <path d="M 34.28125 27.484375 
Q 23.390625 27.484375 19.1875 25 
Q 14.984375 22.515625 14.984375 16.5 
Q 14.984375 11.71875 18.140625 8.90625 
Q 21.296875 6.109375 26.703125 6.109375 
Q 34.1875 6.109375 38.703125 11.40625 
Q 43.21875 16.703125 43.21875 25.484375 
L 43.21875 27.484375 
z
M 52.203125 31.203125 
L 52.203125 0 
L 43.21875 0 
L 43.21875 8.296875 
Q 40.140625 3.328125 35.546875 0.953125 
Q 30.953125 -1.421875 24.3125 -1.421875 
Q 15.921875 -1.421875 10.953125 3.296875 
Q 6 8.015625 6 15.921875 
Q 6 25.140625 12.171875 29.828125 
Q 18.359375 34.515625 30.609375 34.515625 
L 43.21875 34.515625 
L 43.21875 35.40625 
Q 43.21875 41.609375 39.140625 45 
Q 35.0625 48.390625 27.6875 48.390625 
Q 23 48.390625 18.546875 47.265625 
Q 14.109375 46.140625 10.015625 43.890625 
L 10.015625 52.203125 
Q 14.9375 54.109375 19.578125 55.046875 
Q 24.21875 56 28.609375 56 
Q 40.484375 56 46.34375 49.84375 
Q 52.203125 43.703125 52.203125 31.203125 
z
" id="DejaVuSans-61"/>
      <path d="M 9.421875 75.984375 
L 18.40625 75.984375 
L 18.40625 0 
L 9.421875 0 
z
" id="DejaVuSans-6c"/>
     </defs>
     <g transform="translate(309.9625 27.298437)scale(0.1 -0.1)">
      <use xlink:href="#DejaVuSans-72"/>
      <use x="41.082031" xlink:href="#DejaVuSans-65"/>
      <use x="102.605469" xlink:href="#DejaVuSans-61"/>
      <use x="163.884766" xlink:href="#DejaVuSans-6c"/>
     </g>
    </g>
    <g id="line2d_21">
     <path d="M 281.9625 38.476562 
L 301.9625 38.476562 
" style="fill:none;stroke:#ff7f0e;stroke-linecap:square;stroke-width:1.5;"/>
    </g>
    <g id="line2d_22"/>
    <g id="text_18">
     <!-- previsao -->
     <defs>
      <path d="M 18.109375 8.203125 
L 18.109375 -20.796875 
L 9.078125 -20.796875 
L 9.078125 54.6875 
L 18.109375 54.6875 
L 18.109375 46.390625 
Q 20.953125 51.265625 25.265625 53.625 
Q 29.59375 56 35.59375 56 
Q 45.5625 56 51.78125 48.09375 
Q 58.015625 40.1875 58.015625 27.296875 
Q 58.015625 14.40625 51.78125 6.484375 
Q 45.5625 -1.421875 35.59375 -1.421875 
Q 29.59375 -1.421875 25.265625 0.953125 
Q 20.953125 3.328125 18.109375 8.203125 
z
M 48.6875 27.296875 
Q 48.6875 37.203125 44.609375 42.84375 
Q 40.53125 48.484375 33.40625 48.484375 
Q 26.265625 48.484375 22.1875 42.84375 
Q 18.109375 37.203125 18.109375 27.296875 
Q 18.109375 17.390625 22.1875 11.75 
Q 26.265625 6.109375 33.40625 6.109375 
Q 40.53125 6.109375 44.609375 11.75 
Q 48.6875 17.390625 48.6875 27.296875 
z
" id="DejaVuSans-70"/>
      <path d="M 2.984375 54.6875 
L 12.5 54.6875 
L 29.59375 8.796875 
L 46.6875 54.6875 
L 56.203125 54.6875 
L 35.6875 0 
L 23.484375 0 
z
" id="DejaVuSans-76"/>
      <path d="M 9.421875 54.6875 
L 18.40625 54.6875 
L 18.40625 0 
L 9.421875 0 
z
M 9.421875 75.984375 
L 18.40625 75.984375 
L 18.40625 64.59375 
L 9.421875 64.59375 
z
" id="DejaVuSans-69"/>
      <path d="M 44.28125 53.078125 
L 44.28125 44.578125 
Q 40.484375 46.53125 36.375 47.5 
Q 32.28125 48.484375 27.875 48.484375 
Q 21.1875 48.484375 17.84375 46.4375 
Q 14.5 44.390625 14.5 40.28125 
Q 14.5 37.15625 16.890625 35.375 
Q 19.28125 33.59375 26.515625 31.984375 
L 29.59375 31.296875 
Q 39.15625 29.25 43.1875 25.515625 
Q 47.21875 21.78125 47.21875 15.09375 
Q 47.21875 7.46875 41.1875 3.015625 
Q 35.15625 -1.421875 24.609375 -1.421875 
Q 20.21875 -1.421875 15.453125 -0.5625 
Q 10.6875 0.296875 5.421875 2 
L 5.421875 11.28125 
Q 10.40625 8.6875 15.234375 7.390625 
Q 20.0625 6.109375 24.8125 6.109375 
Q 31.15625 6.109375 34.5625 8.28125 
Q 37.984375 10.453125 37.984375 14.40625 
Q 37.984375 18.0625 35.515625 20.015625 
Q 33.0625 21.96875 24.703125 23.78125 
L 21.578125 24.515625 
Q 13.234375 26.265625 9.515625 29.90625 
Q 5.8125 33.546875 5.8125 39.890625 
Q 5.8125 47.609375 11.28125 51.796875 
Q 16.75 56 26.8125 56 
Q 31.78125 56 36.171875 55.265625 
Q 40.578125 54.546875 44.28125 53.078125 
z
" id="DejaVuSans-73"/>
      <path d="M 30.609375 48.390625 
Q 23.390625 48.390625 19.1875 42.75 
Q 14.984375 37.109375 14.984375 27.296875 
Q 14.984375 17.484375 19.15625 11.84375 
Q 23.34375 6.203125 30.609375 6.203125 
Q 37.796875 6.203125 41.984375 11.859375 
Q 46.1875 17.53125 46.1875 27.296875 
Q 46.1875 37.015625 41.984375 42.703125 
Q 37.796875 48.390625 30.609375 48.390625 
z
M 30.609375 56 
Q 42.328125 56 49.015625 48.375 
Q 55.71875 40.765625 55.71875 27.296875 
Q 55.71875 13.875 49.015625 6.21875 
Q 42.328125 -1.421875 30.609375 -1.421875 
Q 18.84375 -1.421875 12.171875 6.21875 
Q 5.515625 13.875 5.515625 27.296875 
Q 5.515625 40.765625 12.171875 48.375 
Q 18.84375 56 30.609375 56 
z
" id="DejaVuSans-6f"/>
     </defs>
     <g transform="translate(309.9625 41.976562)scale(0.1 -0.1)">
      <use xlink:href="#DejaVuSans-70"/>
      <use x="63.476562" xlink:href="#DejaVuSans-72"/>
      <use x="104.558594" xlink:href="#DejaVuSans-65"/>
      <use x="166.082031" xlink:href="#DejaVuSans-76"/>
      <use x="225.261719" xlink:href="#DejaVuSans-69"/>
      <use x="253.044922" xlink:href="#DejaVuSans-73"/>
      <use x="305.144531" xlink:href="#DejaVuSans-61"/>
      <use x="366.423828" xlink:href="#DejaVuSans-6f"/>
     </g>
    </g>
   </g>
  </g>
 </g>
 <defs>
  <clipPath id="p7b8569c87c">
   <rect height="217.44" width="334.8" x="26.925" y="10.7"/>
  </clipPath>
 </defs>
</svg>
