<?xml version="1.0" encoding="utf-8" standalone="no"?>
<!DOCTYPE svg PUBLIC "-//W3C//DTD SVG 1.1//EN"
  "http://www.w3.org/Graphics/SVG/1.1/DTD/svg11.dtd">
<!-- Created with matplotlib (http://matplotlib.org/) -->
<svg height="252.018125pt" version="1.1" viewBox="0 0 377.830862 252.018125" width="377.830862pt" xmlns="http://www.w3.org/2000/svg" xmlns:xlink="http://www.w3.org/1999/xlink">
 <defs>
  <style type="text/css">
*{stroke-linecap:butt;stroke-linejoin:round;}
  </style>
 </defs>
 <g id="figure_1">
  <g id="patch_1">
   <path d="M -0 252.018125 
L 377.830862 252.018125 
L 377.830862 0 
L -0 0 
z
" style="fill:none;"/>
  </g>
  <g id="axes_1">
   <g id="patch_2">
    <path d="M 26.925 228.14 
L 361.725 228.14 
L 361.725 10.7 
L 26.925 10.7 
z
" style="fill:#ffffff;"/>
   </g>
   <g id="matplotlib.axis_1">
    <g id="xtick_1">
     <g id="line2d_1">
      <defs>
       <path d="M 0 0 
L 0 3.5 
" id="mb26bb796df" style="stroke:#000000;stroke-width:0.8;"/>
      </defs>
      <g>
       <use style="stroke:#000000;stroke-width:0.8;" x="42.143182" xlink:href="#mb26bb796df" y="228.14"/>
      </g>
     </g>
     <g id="text_1">
      <!-- 0 -->
      <defs>
       <path d="M 31.78125 66.40625 
Q 24.171875 66.40625 20.328125 58.90625 
Q 16.5 51.421875 16.5 36.375 
Q 16.5 21.390625 20.328125 13.890625 
Q 24.171875 6.390625 31.78125 6.390625 
Q 39.453125 6.390625 43.28125 13.890625 
Q 47.125 21.390625 47.125 36.375 
Q 47.125 51.421875 43.28125 58.90625 
Q 39.453125 66.40625 31.78125 66.40625 
z
M 31.78125 74.21875 
Q 44.046875 74.21875 50.515625 64.515625 
Q 56.984375 54.828125 56.984375 36.375 
Q 56.984375 17.96875 50.515625 8.265625 
Q 44.046875 -1.421875 31.78125 -1.421875 
Q 19.53125 -1.421875 13.0625 8.265625 
Q 6.59375 17.96875 6.59375 36.375 
Q 6.59375 54.828125 13.0625 64.515625 
Q 19.53125 74.21875 31.78125 74.21875 
z
" id="DejaVuSans-30"/>
      </defs>
      <g transform="translate(38.961932 242.738437)scale(0.1 -0.1)">
       <use xlink:href="#DejaVuSans-30"/>
      </g>
     </g>
    </g>
    <g id="xtick_2">
     <g id="line2d_2">
      <g>
       <use style="stroke:#000000;stroke-width:0.8;" x="87.7066" xlink:href="#mb26bb796df" y="228.14"/>
      </g>
     </g>
     <g id="text_2">
      <!-- 25 -->
      <defs>
       <path d="M 19.1875 8.296875 
L 53.609375 8.296875 
L 53.609375 0 
L 7.328125 0 
L 7.328125 8.296875 
Q 12.9375 14.109375 22.625 23.890625 
Q 32.328125 33.6875 34.8125 36.53125 
Q 39.546875 41.84375 41.421875 45.53125 
Q 43.3125 49.21875 43.3125 52.78125 
Q 43.3125 58.59375 39.234375 62.25 
Q 35.15625 65.921875 28.609375 65.921875 
Q 23.96875 65.921875 18.8125 64.3125 
Q 13.671875 62.703125 7.8125 59.421875 
L 7.8125 69.390625 
Q 13.765625 71.78125 18.9375 73 
Q 24.125 74.21875 28.421875 74.21875 
Q 39.75 74.21875 46.484375 68.546875 
Q 53.21875 62.890625 53.21875 53.421875 
Q 53.21875 48.921875 51.53125 44.890625 
Q 49.859375 40.875 45.40625 35.40625 
Q 44.1875 33.984375 37.640625 27.21875 
Q 31.109375 20.453125 19.1875 8.296875 
z
" id="DejaVuSans-32"/>
       <path d="M 10.796875 72.90625 
L 49.515625 72.90625 
L 49.515625 64.59375 
L 19.828125 64.59375 
L 19.828125 46.734375 
Q 21.96875 47.46875 24.109375 47.828125 
Q 26.265625 48.1875 28.421875 48.1875 
Q 40.625 48.1875 47.75 41.5 
Q 54.890625 34.8125 54.890625 23.390625 
Q 54.890625 11.625 47.5625 5.09375 
Q 40.234375 -1.421875 26.90625 -1.421875 
Q 22.3125 -1.421875 17.546875 -0.640625 
Q 12.796875 0.140625 7.71875 1.703125 
L 7.71875 11.625 
Q 12.109375 9.234375 16.796875 8.0625 
Q 21.484375 6.890625 26.703125 6.890625 
Q 35.15625 6.890625 40.078125 11.328125 
Q 45.015625 15.765625 45.015625 23.390625 
Q 45.015625 31 40.078125 35.4375 
Q 35.15625 39.890625 26.703125 39.890625 
Q 22.75 39.890625 18.8125 39.015625 
Q 14.890625 38.140625 10.796875 36.28125 
z
" id="DejaVuSans-35"/>
      </defs>
      <g transform="translate(81.3441 242.738437)scale(0.1 -0.1)">
       <use xlink:href="#DejaVuSans-32"/>
       <use x="63.623047" xlink:href="#DejaVuSans-35"/>
      </g>
     </g>
    </g>
    <g id="xtick_3">
     <g id="line2d_3">
      <g>
       <use style="stroke:#000000;stroke-width:0.8;" x="133.270019" xlink:href="#mb26bb796df" y="228.14"/>
      </g>
     </g>
     <g id="text_3">
      <!-- 50 -->
      <g transform="translate(126.907519 242.738437)scale(0.1 -0.1)">
       <use xlink:href="#DejaVuSans-35"/>
       <use x="63.623047" xlink:href="#DejaVuSans-30"/>
      </g>
     </g>
    </g>
    <g id="xtick_4">
     <g id="line2d_4">
      <g>
       <use style="stroke:#000000;stroke-width:0.8;" x="178.833438" xlink:href="#mb26bb796df" y="228.14"/>
      </g>
     </g>
     <g id="text_4">
      <!-- 75 -->
      <defs>
       <path d="M 8.203125 72.90625 
L 55.078125 72.90625 
L 55.078125 68.703125 
L 28.609375 0 
L 18.3125 0 
L 43.21875 64.59375 
L 8.203125 64.59375 
z
" id="DejaVuSans-37"/>
      </defs>
      <g transform="translate(172.470938 242.738437)scale(0.1 -0.1)">
       <use xlink:href="#DejaVuSans-37"/>
       <use x="63.623047" xlink:href="#DejaVuSans-35"/>
      </g>
     </g>
    </g>
    <g id="xtick_5">
     <g id="line2d_5">
      <g>
       <use style="stroke:#000000;stroke-width:0.8;" x="224.396856" xlink:href="#mb26bb796df" y="228.14"/>
      </g>
     </g>
     <g id="text_5">
      <!-- 100 -->
      <defs>
       <path d="M 12.40625 8.296875 
L 28.515625 8.296875 
L 28.515625 63.921875 
L 10.984375 60.40625 
L 10.984375 69.390625 
L 28.421875 72.90625 
L 38.28125 72.90625 
L 38.28125 8.296875 
L 54.390625 8.296875 
L 54.390625 0 
L 12.40625 0 
z
" id="DejaVuSans-31"/>
      </defs>
      <g transform="translate(214.853106 242.738437)scale(0.1 -0.1)">
       <use xlink:href="#DejaVuSans-31"/>
       <use x="63.623047" xlink:href="#DejaVuSans-30"/>
       <use x="127.246094" xlink:href="#DejaVuSans-30"/>
      </g>
     </g>
    </g>
    <g id="xtick_6">
     <g id="line2d_6">
      <g>
       <use style="stroke:#000000;stroke-width:0.8;" x="269.960275" xlink:href="#mb26bb796df" y="228.14"/>
      </g>
     </g>
     <g id="text_6">
      <!-- 125 -->
      <g transform="translate(260.416525 242.738437)scale(0.1 -0.1)">
       <use xlink:href="#DejaVuSans-31"/>
       <use x="63.623047" xlink:href="#DejaVuSans-32"/>
       <use x="127.246094" xlink:href="#DejaVuSans-35"/>
      </g>
     </g>
    </g>
    <g id="xtick_7">
     <g id="line2d_7">
      <g>
       <use style="stroke:#000000;stroke-width:0.8;" x="315.523694" xlink:href="#mb26bb796df" y="228.14"/>
      </g>
     </g>
     <g id="text_7">
      <!-- 150 -->
      <g transform="translate(305.979944 242.738437)scale(0.1 -0.1)">
       <use xlink:href="#DejaVuSans-31"/>
       <use x="63.623047" xlink:href="#DejaVuSans-35"/>
       <use x="127.246094" xlink:href="#DejaVuSans-30"/>
      </g>
     </g>
    </g>
    <g id="xtick_8">
     <g id="line2d_8">
      <g>
       <use style="stroke:#000000;stroke-width:0.8;" x="361.087112" xlink:href="#mb26bb796df" y="228.14"/>
      </g>
     </g>
     <g id="text_8">
      <!-- 175 -->
      <g transform="translate(351.543362 242.738437)scale(0.1 -0.1)">
       <use xlink:href="#DejaVuSans-31"/>
       <use x="63.623047" xlink:href="#DejaVuSans-37"/>
       <use x="127.246094" xlink:href="#DejaVuSans-35"/>
      </g>
     </g>
    </g>
   </g>
   <g id="matplotlib.axis_2">
    <g id="ytick_1">
     <g id="line2d_9">
      <defs>
       <path d="M 0 0 
L -3.5 0 
" id="m7da28fdb27" style="stroke:#000000;stroke-width:0.8;"/>
      </defs>
      <g>
       <use style="stroke:#000000;stroke-width:0.8;" x="26.925" xlink:href="#m7da28fdb27" y="218.256364"/>
      </g>
     </g>
     <g id="text_9">
      <!-- 0 -->
      <g transform="translate(13.5625 222.055582)scale(0.1 -0.1)">
       <use xlink:href="#DejaVuSans-30"/>
      </g>
     </g>
    </g>
    <g id="ytick_2">
     <g id="line2d_10">
      <g>
       <use style="stroke:#000000;stroke-width:0.8;" x="26.925" xlink:href="#m7da28fdb27" y="191.122153"/>
      </g>
     </g>
     <g id="text_10">
      <!-- 2 -->
      <g transform="translate(13.5625 194.921371)scale(0.1 -0.1)">
       <use xlink:href="#DejaVuSans-32"/>
      </g>
     </g>
    </g>
    <g id="ytick_3">
     <g id="line2d_11">
      <g>
       <use style="stroke:#000000;stroke-width:0.8;" x="26.925" xlink:href="#m7da28fdb27" y="163.987942"/>
      </g>
     </g>
     <g id="text_11">
      <!-- 4 -->
      <defs>
       <path d="M 37.796875 64.3125 
L 12.890625 25.390625 
L 37.796875 25.390625 
z
M 35.203125 72.90625 
L 47.609375 72.90625 
L 47.609375 25.390625 
L 58.015625 25.390625 
L 58.015625 17.1875 
L 47.609375 17.1875 
L 47.609375 0 
L 37.796875 0 
L 37.796875 17.1875 
L 4.890625 17.1875 
L 4.890625 26.703125 
z
" id="DejaVuSans-34"/>
      </defs>
      <g transform="translate(13.5625 167.78716)scale(0.1 -0.1)">
       <use xlink:href="#DejaVuSans-34"/>
      </g>
     </g>
    </g>
    <g id="ytick_4">
     <g id="line2d_12">
      <g>
       <use style="stroke:#000000;stroke-width:0.8;" x="26.925" xlink:href="#m7da28fdb27" y="136.853731"/>
      </g>
     </g>
     <g id="text_12">
      <!-- 6 -->
      <defs>
       <path d="M 33.015625 40.375 
Q 26.375 40.375 22.484375 35.828125 
Q 18.609375 31.296875 18.609375 23.390625 
Q 18.609375 15.53125 22.484375 10.953125 
Q 26.375 6.390625 33.015625 6.390625 
Q 39.65625 6.390625 43.53125 10.953125 
Q 47.40625 15.53125 47.40625 23.390625 
Q 47.40625 31.296875 43.53125 35.828125 
Q 39.65625 40.375 33.015625 40.375 
z
M 52.59375 71.296875 
L 52.59375 62.3125 
Q 48.875 64.0625 45.09375 64.984375 
Q 41.3125 65.921875 37.59375 65.921875 
Q 27.828125 65.921875 22.671875 59.328125 
Q 17.53125 52.734375 16.796875 39.40625 
Q 19.671875 43.65625 24.015625 45.921875 
Q 28.375 48.1875 33.59375 48.1875 
Q 44.578125 48.1875 50.953125 41.515625 
Q 57.328125 34.859375 57.328125 23.390625 
Q 57.328125 12.15625 50.6875 5.359375 
Q 44.046875 -1.421875 33.015625 -1.421875 
Q 20.359375 -1.421875 13.671875 8.265625 
Q 6.984375 17.96875 6.984375 36.375 
Q 6.984375 53.65625 15.1875 63.9375 
Q 23.390625 74.21875 37.203125 74.21875 
Q 40.921875 74.21875 44.703125 73.484375 
Q 48.484375 72.75 52.59375 71.296875 
z
" id="DejaVuSans-36"/>
      </defs>
      <g transform="translate(13.5625 140.652949)scale(0.1 -0.1)">
       <use xlink:href="#DejaVuSans-36"/>
      </g>
     </g>
    </g>
    <g id="ytick_5">
     <g id="line2d_13">
      <g>
       <use style="stroke:#000000;stroke-width:0.8;" x="26.925" xlink:href="#m7da28fdb27" y="109.71952"/>
      </g>
     </g>
     <g id="text_13">
      <!-- 8 -->
      <defs>
       <path d="M 31.78125 34.625 
Q 24.75 34.625 20.71875 30.859375 
Q 16.703125 27.09375 16.703125 20.515625 
Q 16.703125 13.921875 20.71875 10.15625 
Q 24.75 6.390625 31.78125 6.390625 
Q 38.8125 6.390625 42.859375 10.171875 
Q 46.921875 13.96875 46.921875 20.515625 
Q 46.921875 27.09375 42.890625 30.859375 
Q 38.875 34.625 31.78125 34.625 
z
M 21.921875 38.8125 
Q 15.578125 40.375 12.03125 44.71875 
Q 8.5 49.078125 8.5 55.328125 
Q 8.5 64.0625 14.71875 69.140625 
Q 20.953125 74.21875 31.78125 74.21875 
Q 42.671875 74.21875 48.875 69.140625 
Q 55.078125 64.0625 55.078125 55.328125 
Q 55.078125 49.078125 51.53125 44.71875 
Q 48 40.375 41.703125 38.8125 
Q 48.828125 37.15625 52.796875 32.3125 
Q 56.78125 27.484375 56.78125 20.515625 
Q 56.78125 9.90625 50.3125 4.234375 
Q 43.84375 -1.421875 31.78125 -1.421875 
Q 19.734375 -1.421875 13.25 4.234375 
Q 6.78125 9.90625 6.78125 20.515625 
Q 6.78125 27.484375 10.78125 32.3125 
Q 14.796875 37.15625 21.921875 38.8125 
z
M 18.3125 54.390625 
Q 18.3125 48.734375 21.84375 45.5625 
Q 25.390625 42.390625 31.78125 42.390625 
Q 38.140625 42.390625 41.71875 45.5625 
Q 45.3125 48.734375 45.3125 54.390625 
Q 45.3125 60.0625 41.71875 63.234375 
Q 38.140625 66.40625 31.78125 66.40625 
Q 25.390625 66.40625 21.84375 63.234375 
Q 18.3125 60.0625 18.3125 54.390625 
z
" id="DejaVuSans-38"/>
      </defs>
      <g transform="translate(13.5625 113.518738)scale(0.1 -0.1)">
       <use xlink:href="#DejaVuSans-38"/>
      </g>
     </g>
    </g>
    <g id="ytick_6">
     <g id="line2d_14">
      <g>
       <use style="stroke:#000000;stroke-width:0.8;" x="26.925" xlink:href="#m7da28fdb27" y="82.585309"/>
      </g>
     </g>
     <g id="text_14">
      <!-- 10 -->
      <g transform="translate(7.2 86.384527)scale(0.1 -0.1)">
       <use xlink:href="#DejaVuSans-31"/>
       <use x="63.623047" xlink:href="#DejaVuSans-30"/>
      </g>
     </g>
    </g>
    <g id="ytick_7">
     <g id="line2d_15">
      <g>
       <use style="stroke:#000000;stroke-width:0.8;" x="26.925" xlink:href="#m7da28fdb27" y="55.451098"/>
      </g>
     </g>
     <g id="text_15">
      <!-- 12 -->
      <g transform="translate(7.2 59.250316)scale(0.1 -0.1)">
       <use xlink:href="#DejaVuSans-31"/>
       <use x="63.623047" xlink:href="#DejaVuSans-32"/>
      </g>
     </g>
    </g>
    <g id="ytick_8">
     <g id="line2d_16">
      <g>
       <use style="stroke:#000000;stroke-width:0.8;" x="26.925" xlink:href="#m7da28fdb27" y="28.316887"/>
      </g>
     </g>
     <g id="text_16">
      <!-- 14 -->
      <g transform="translate(7.2 32.116105)scale(0.1 -0.1)">
       <use xlink:href="#DejaVuSans-31"/>
       <use x="63.623047" xlink:href="#DejaVuSans-34"/>
      </g>
     </g>
    </g>
   </g>
   <g id="line2d_17">
    <path clip-path="url(#pbda18cdb71)" d="M 42.143182 196.141982 
L 43.965719 212.422508 
L 45.788255 170.771494 
L 47.610792 218.256364 
L 49.433329 150.96352 
L 51.255866 105.513717 
L 53.078402 158.289757 
L 54.900939 167.922402 
L 56.723476 173.484915 
L 58.546013 192.478863 
L 60.368549 218.256364 
L 62.191086 189.358429 
L 64.013623 194.513929 
L 65.836159 180.675481 
L 67.658696 183.931587 
L 71.30377 119.216493 
L 73.126306 194.513929 
L 74.948843 208.081035 
L 76.77138 215.407271 
L 78.593917 160.596165 
L 80.416453 196.006311 
L 82.23899 189.222758 
L 84.061527 173.077902 
L 85.884064 194.920942 
L 87.7066 138.753125 
L 89.529137 188.680074 
L 91.351674 178.504744 
L 93.174211 66.440453 
L 94.996747 135.49702 
L 96.819284 131.019875 
L 98.641821 198.312719 
L 102.286894 217.035324 
L 104.109431 122.743941 
L 105.931968 197.091679 
L 107.754505 176.60535 
L 109.577041 190.715139 
L 111.399578 188.680074 
L 113.222115 109.448177 
L 115.044652 117.859783 
L 116.867188 120.437533 
L 118.689725 191.122153 
L 120.512262 144.45131 
L 122.334799 194.378258 
L 124.157335 168.8721 
L 125.979872 170.500152 
L 127.802409 196.413324 
L 129.624946 196.006311 
L 131.447482 132.783599 
L 133.270019 142.958928 
L 135.092556 46.76815 
L 136.915093 90.589901 
L 138.737629 156.797376 
L 140.560166 131.019875 
L 142.382703 195.327955 
L 144.20524 185.152626 
L 146.027776 201.568824 
L 147.850313 128.984809 
L 149.67285 203.061205 
L 151.495386 211.201469 
L 153.317923 191.936179 
L 155.14046 198.44839 
L 156.962997 82.313966 
L 158.785533 218.256364 
L 160.60807 107.548783 
L 162.430607 131.969573 
L 164.253144 198.44839 
L 166.07568 218.256364 
L 167.898217 186.373666 
L 169.720754 198.855403 
L 171.543291 206.045969 
L 173.365827 184.202929 
L 175.188364 211.201469 
L 177.010901 201.161811 
L 178.833438 172.80656 
L 180.655974 61.827637 
L 182.478511 155.576336 
L 184.301048 218.256364 
L 186.123585 80.821585 
L 187.946121 209.030732 
L 189.768658 151.099191 
L 191.591195 204.553587 
L 193.413732 125.457362 
L 195.236268 207.809692 
L 197.058805 191.800508 
L 198.881342 96.423756 
L 200.703879 109.71952 
L 202.526415 184.745613 
L 204.348952 131.69823 
L 206.171489 203.468219 
L 207.994026 190.172455 
L 209.816562 72.681322 
L 211.639099 128.577796 
L 213.461636 166.972705 
L 215.284173 176.876692 
L 217.106709 119.080822 
L 218.929246 68.204177 
L 220.751783 137.260744 
L 222.57432 83.127993 
L 224.396856 100.086875 
L 226.219393 174.841626 
L 228.04193 101.714927 
L 229.864467 64.676729 
L 231.687003 208.488048 
L 233.50954 173.213573 
L 235.332077 218.256364 
L 237.154614 28.452558 
L 238.97715 205.367613 
L 240.799687 69.9679 
L 242.622224 86.519769 
L 244.44476 169.007771 
L 246.267297 82.449637 
L 248.089834 176.334008 
L 249.912371 123.829309 
L 251.734907 164.801968 
L 253.557444 71.460282 
L 255.379981 145.265336 
L 257.202518 139.567152 
L 259.025054 100.493888 
L 260.847591 179.318771 
L 262.670128 118.402467 
L 264.492665 180.946823 
L 266.315201 139.160139 
L 268.137738 188.815745 
L 269.960275 209.980429 
L 271.782812 147.978757 
L 273.605348 81.49994 
L 275.427885 145.129665 
L 277.250422 98.18748 
L 279.072959 174.977297 
L 280.895495 20.583636 
L 282.718032 158.561099 
L 284.540569 85.705743 
L 286.363106 188.27306 
L 288.185642 218.256364 
L 290.008179 41.205637 
L 291.830716 141.602218 
L 293.653253 203.332548 
L 295.475789 92.489296 
L 297.298326 218.256364 
L 299.120863 196.141982 
L 300.9434 209.030732 
L 302.765936 190.986482 
L 304.588473 189.222758 
L 306.41101 77.972493 
L 308.233547 197.091679 
L 310.056083 210.930127 
L 311.87862 191.936179 
L 313.701157 32.387018 
L 315.523694 68.204177 
L 319.168767 181.76085 
L 320.991304 129.527494 
L 322.813841 145.943691 
L 324.636377 181.082495 
L 326.458914 130.884204 
L 328.281451 191.800508 
L 330.103987 123.015283 
L 331.926524 175.112968 
L 333.749061 213.779219 
L 335.571598 212.69385 
L 337.394134 66.03344 
L 339.216671 66.847466 
L 341.039208 136.311046 
L 342.861745 53.009019 
L 346.506818 202.111508 
L 346.506818 202.111508 
" style="fill:none;stroke:#1f77b4;stroke-linecap:square;stroke-width:1.5;"/>
   </g>
   <g id="line2d_18">
    <path clip-path="url(#pbda18cdb71)" d="M 42.143182 163.54101 
L 43.965719 150.379496 
L 45.788255 157.321185 
L 47.610792 178.555457 
L 49.433329 139.199834 
L 51.255866 158.686114 
L 53.078402 150.848175 
L 54.900939 138.825342 
L 56.723476 156.251753 
L 58.546013 160.896165 
L 60.368549 165.214366 
L 62.191086 161.328801 
L 64.013623 147.449258 
L 65.836159 167.726161 
L 67.658696 146.373718 
L 69.481233 147.969152 
L 71.30377 147.331575 
L 74.948843 166.847536 
L 76.77138 161.147773 
L 78.593917 162.462785 
L 80.416453 157.618359 
L 82.23899 137.563284 
L 84.061527 162.506477 
L 85.884064 171.632737 
L 87.7066 165.901021 
L 89.529137 143.248843 
L 91.351674 163.404318 
L 93.174211 127.93181 
L 94.996747 166.766039 
L 96.819284 141.471356 
L 98.641821 157.41923 
L 100.464358 160.232804 
L 102.286894 164.58415 
L 104.109431 140.93173 
L 105.931968 169.513517 
L 107.754505 158.33058 
L 109.577041 169.283349 
L 111.399578 141.907815 
L 113.222115 152.165192 
L 115.044652 160.562657 
L 116.867188 146.740334 
L 118.689725 168.078036 
L 120.512262 136.283742 
L 122.334799 171.31375 
L 124.157335 171.886459 
L 125.979872 144.205205 
L 127.802409 154.423716 
L 129.624946 167.306399 
L 131.447482 132.308971 
L 133.270019 149.229178 
L 135.092556 146.698745 
L 136.915093 148.86776 
L 138.737629 150.221799 
L 140.560166 162.701168 
L 142.382703 166.373504 
L 144.20524 148.775095 
L 146.027776 147.546511 
L 147.850313 163.502835 
L 149.67285 159.81839 
L 151.495386 177.293016 
L 153.317923 150.565138 
L 155.14046 143.682337 
L 156.962997 159.278394 
L 158.785533 152.170609 
L 160.60807 165.565423 
L 162.430607 159.742412 
L 164.253144 176.627723 
L 166.07568 187.569685 
L 167.898217 157.718125 
L 169.720754 155.207117 
L 171.543291 151.766021 
L 173.365827 165.596913 
L 175.188364 183.207951 
L 177.010901 161.521135 
L 178.833438 145.515157 
L 180.655974 141.129366 
L 182.478511 142.346626 
L 184.301048 145.839259 
L 186.123585 164.723726 
L 187.946121 164.560111 
L 189.768658 156.215585 
L 191.591195 144.358642 
L 193.413732 162.299225 
L 195.236268 153.171217 
L 197.058805 176.296303 
L 198.881342 122.806861 
L 200.703879 167.700794 
L 202.526415 173.580843 
L 204.348952 153.583194 
L 206.171489 162.061255 
L 207.994026 182.420431 
L 209.816562 127.84796 
L 211.639099 146.448648 
L 213.461636 151.540163 
L 215.284173 142.196401 
L 217.106709 159.202987 
L 218.929246 146.283975 
L 220.751783 172.84549 
L 222.57432 143.077434 
L 224.396856 183.200559 
L 226.219393 153.163867 
L 228.04193 148.085125 
L 229.864467 144.255742 
L 231.687003 161.600897 
L 233.50954 138.399423 
L 235.332077 165.565423 
L 237.154614 138.079866 
L 238.97715 150.159488 
L 240.799687 131.581193 
L 242.622224 171.339977 
L 244.44476 137.638559 
L 246.267297 183.200559 
L 248.089834 153.448536 
L 249.912371 158.179493 
L 251.734907 172.875003 
L 253.557444 128.01948 
L 255.379981 120.829439 
L 257.202518 176.757194 
L 259.025054 149.542095 
L 260.847591 156.913271 
L 262.670128 177.464759 
L 264.492665 117.552545 
L 266.315201 172.68647 
L 268.137738 147.739227 
L 269.960275 147.58494 
L 271.782812 152.706613 
L 273.605348 169.095578 
L 275.427885 131.911668 
L 277.250422 169.618225 
L 279.072959 146.736779 
L 280.895495 151.423722 
L 282.718032 168.061128 
L 284.540569 129.10359 
L 286.363106 174.169902 
L 288.185642 167.231238 
L 290.008179 153.855177 
L 291.830716 146.551027 
L 293.653253 145.564592 
L 295.475789 129.807839 
L 297.298326 177.002118 
L 299.120863 176.592313 
L 300.9434 171.642252 
L 302.765936 154.102057 
L 304.588473 142.066504 
L 308.233547 183.431642 
L 310.056083 149.911462 
L 311.87862 144.749894 
L 313.701157 143.563345 
L 315.523694 150.63382 
L 317.34623 167.261661 
L 319.168767 143.909371 
L 320.991304 172.535483 
L 322.813841 154.93802 
L 324.636377 160.286214 
L 326.458914 159.989593 
L 328.281451 148.070696 
L 330.103987 165.0483 
L 331.926524 144.168399 
L 333.749061 169.261714 
L 335.571598 154.10736 
L 337.394134 157.317817 
L 339.216671 149.307526 
L 341.039208 151.262495 
L 342.861745 151.809207 
L 344.684281 143.457313 
L 346.506818 149.394102 
L 346.506818 149.394102 
" style="fill:none;stroke:#ff7f0e;stroke-linecap:square;stroke-width:1.5;"/>
   </g>
   <g id="patch_3">
    <path d="M 26.925 228.14 
L 26.925 10.7 
" style="fill:none;stroke:#000000;stroke-linecap:square;stroke-linejoin:miter;stroke-width:0.8;"/>
   </g>
   <g id="patch_4">
    <path d="M 361.725 228.14 
L 361.725 10.7 
" style="fill:none;stroke:#000000;stroke-linecap:square;stroke-linejoin:miter;stroke-width:0.8;"/>
   </g>
   <g id="patch_5">
    <path d="M 26.925 228.14 
L 361.725 228.14 
" style="fill:none;stroke:#000000;stroke-linecap:square;stroke-linejoin:miter;stroke-width:0.8;"/>
   </g>
   <g id="patch_6">
    <path d="M 26.925 10.7 
L 361.725 10.7 
" style="fill:none;stroke:#000000;stroke-linecap:square;stroke-linejoin:miter;stroke-width:0.8;"/>
   </g>
   <g id="legend_1">
    <g id="patch_7">
     <path d="M 33.925 48.05625 
L 108.6875 48.05625 
Q 110.6875 48.05625 110.6875 46.05625 
L 110.6875 17.7 
Q 110.6875 15.7 108.6875 15.7 
L 33.925 15.7 
Q 31.925 15.7 31.925 17.7 
L 31.925 46.05625 
Q 31.925 48.05625 33.925 48.05625 
z
" style="fill:#ffffff;opacity:0.8;stroke:#cccccc;stroke-linejoin:miter;"/>
    </g>
    <g id="line2d_19">
     <path d="M 35.925 23.798437 
L 55.925 23.798437 
" style="fill:none;stroke:#1f77b4;stroke-linecap:square;stroke-width:1.5;"/>
    </g>
    <g id="line2d_20"/>
    <g id="text_17">
     <!-- real -->
     <defs>
      <path d="M 41.109375 46.296875 
Q 39.59375 47.171875 37.8125 47.578125 
Q 36.03125 48 33.890625 48 
Q 26.265625 48 22.1875 43.046875 
Q 18.109375 38.09375 18.109375 28.8125 
L 18.109375 0 
L 9.078125 0 
L 9.078125 54.6875 
L 18.109375 54.6875 
L 18.109375 46.1875 
Q 20.953125 51.171875 25.484375 53.578125 
Q 30.03125 56 36.53125 56 
Q 37.453125 56 38.578125 55.875 
Q 39.703125 55.765625 41.0625 55.515625 
z
" id="DejaVuSans-72"/>
      <path d="M 56.203125 29.59375 
L 56.203125 25.203125 
L 14.890625 25.203125 
Q 15.484375 15.921875 20.484375 11.0625 
Q 25.484375 6.203125 34.421875 6.203125 
Q 39.59375 6.203125 44.453125 7.46875 
Q 49.3125 8.734375 54.109375 11.28125 
L 54.109375 2.78125 
Q 49.265625 0.734375 44.1875 -0.34375 
Q 39.109375 -1.421875 33.890625 -1.421875 
Q 20.796875 -1.421875 13.15625 6.1875 
Q 5.515625 13.8125 5.515625 26.8125 
Q 5.515625 40.234375 12.765625 48.109375 
Q 20.015625 56 32.328125 56 
Q 43.359375 56 49.78125 48.890625 
Q 56.203125 41.796875 56.203125 29.59375 
z
M 47.21875 32.234375 
Q 47.125 39.59375 43.09375 43.984375 
Q 39.0625 48.390625 32.421875 48.390625 
Q 24.90625 48.390625 20.390625 44.140625 
Q 15.875 39.890625 15.1875 32.171875 
z
" id="DejaVuSans-65"/>
      <path d="M 34.28125 27.484375 
Q 23.390625 27.484375 19.1875 25 
Q 14.984375 22.515625 14.984375 16.5 
Q 14.984375 11.71875 18.140625 8.90625 
Q 21.296875 6.109375 26.703125 6.109375 
Q 34.1875 6.109375 38.703125 11.40625 
Q 43.21875 16.703125 43.21875 25.484375 
L 43.21875 27.484375 
z
M 52.203125 31.203125 
L 52.203125 0 
L 43.21875 0 
L 43.21875 8.296875 
Q 40.140625 3.328125 35.546875 0.953125 
Q 30.953125 -1.421875 24.3125 -1.421875 
Q 15.921875 -1.421875 10.953125 3.296875 
Q 6 8.015625 6 15.921875 
Q 6 25.140625 12.171875 29.828125 
Q 18.359375 34.515625 30.609375 34.515625 
L 43.21875 34.515625 
L 43.21875 35.40625 
Q 43.21875 41.609375 39.140625 45 
Q 35.0625 48.390625 27.6875 48.390625 
Q 23 48.390625 18.546875 47.265625 
Q 14.109375 46.140625 10.015625 43.890625 
L 10.015625 52.203125 
Q 14.9375 54.109375 19.578125 55.046875 
Q 24.21875 56 28.609375 56 
Q 40.484375 56 46.34375 49.84375 
Q 52.203125 43.703125 52.203125 31.203125 
z
" id="DejaVuSans-61"/>
      <path d="M 9.421875 75.984375 
L 18.40625 75.984375 
L 18.40625 0 
L 9.421875 0 
z
" id="DejaVuSans-6c"/>
     </defs>
     <g transform="translate(63.925 27.298437)scale(0.1 -0.1)">
      <use xlink:href="#DejaVuSans-72"/>
      <use x="41.082031" xlink:href="#DejaVuSans-65"/>
      <use x="102.605469" xlink:href="#DejaVuSans-61"/>
      <use x="163.884766" xlink:href="#DejaVuSans-6c"/>
     </g>
    </g>
    <g id="line2d_21">
     <path d="M 35.925 38.476562 
L 55.925 38.476562 
" style="fill:none;stroke:#ff7f0e;stroke-linecap:square;stroke-width:1.5;"/>
    </g>
    <g id="line2d_22"/>
    <g id="text_18">
     <!-- previsao -->
     <defs>
      <path d="M 18.109375 8.203125 
L 18.109375 -20.796875 
L 9.078125 -20.796875 
L 9.078125 54.6875 
L 18.109375 54.6875 
L 18.109375 46.390625 
Q 20.953125 51.265625 25.265625 53.625 
Q 29.59375 56 35.59375 56 
Q 45.5625 56 51.78125 48.09375 
Q 58.015625 40.1875 58.015625 27.296875 
Q 58.015625 14.40625 51.78125 6.484375 
Q 45.5625 -1.421875 35.59375 -1.421875 
Q 29.59375 -1.421875 25.265625 0.953125 
Q 20.953125 3.328125 18.109375 8.203125 
z
M 48.6875 27.296875 
Q 48.6875 37.203125 44.609375 42.84375 
Q 40.53125 48.484375 33.40625 48.484375 
Q 26.265625 48.484375 22.1875 42.84375 
Q 18.109375 37.203125 18.109375 27.296875 
Q 18.109375 17.390625 22.1875 11.75 
Q 26.265625 6.109375 33.40625 6.109375 
Q 40.53125 6.109375 44.609375 11.75 
Q 48.6875 17.390625 48.6875 27.296875 
z
" id="DejaVuSans-70"/>
      <path d="M 2.984375 54.6875 
L 12.5 54.6875 
L 29.59375 8.796875 
L 46.6875 54.6875 
L 56.203125 54.6875 
L 35.6875 0 
L 23.484375 0 
z
" id="DejaVuSans-76"/>
      <path d="M 9.421875 54.6875 
L 18.40625 54.6875 
L 18.40625 0 
L 9.421875 0 
z
M 9.421875 75.984375 
L 18.40625 75.984375 
L 18.40625 64.59375 
L 9.421875 64.59375 
z
" id="DejaVuSans-69"/>
      <path d="M 44.28125 53.078125 
L 44.28125 44.578125 
Q 40.484375 46.53125 36.375 47.5 
Q 32.28125 48.484375 27.875 48.484375 
Q 21.1875 48.484375 17.84375 46.4375 
Q 14.5 44.390625 14.5 40.28125 
Q 14.5 37.15625 16.890625 35.375 
Q 19.28125 33.59375 26.515625 31.984375 
L 29.59375 31.296875 
Q 39.15625 29.25 43.1875 25.515625 
Q 47.21875 21.78125 47.21875 15.09375 
Q 47.21875 7.46875 41.1875 3.015625 
Q 35.15625 -1.421875 24.609375 -1.421875 
Q 20.21875 -1.421875 15.453125 -0.5625 
Q 10.6875 0.296875 5.421875 2 
L 5.421875 11.28125 
Q 10.40625 8.6875 15.234375 7.390625 
Q 20.0625 6.109375 24.8125 6.109375 
Q 31.15625 6.109375 34.5625 8.28125 
Q 37.984375 10.453125 37.984375 14.40625 
Q 37.984375 18.0625 35.515625 20.015625 
Q 33.0625 21.96875 24.703125 23.78125 
L 21.578125 24.515625 
Q 13.234375 26.265625 9.515625 29.90625 
Q 5.8125 33.546875 5.8125 39.890625 
Q 5.8125 47.609375 11.28125 51.796875 
Q 16.75 56 26.8125 56 
Q 31.78125 56 36.171875 55.265625 
Q 40.578125 54.546875 44.28125 53.078125 
z
" id="DejaVuSans-73"/>
      <path d="M 30.609375 48.390625 
Q 23.390625 48.390625 19.1875 42.75 
Q 14.984375 37.109375 14.984375 27.296875 
Q 14.984375 17.484375 19.15625 11.84375 
Q 23.34375 6.203125 30.609375 6.203125 
Q 37.796875 6.203125 41.984375 11.859375 
Q 46.1875 17.53125 46.1875 27.296875 
Q 46.1875 37.015625 41.984375 42.703125 
Q 37.796875 48.390625 30.609375 48.390625 
z
M 30.609375 56 
Q 42.328125 56 49.015625 48.375 
Q 55.71875 40.765625 55.71875 27.296875 
Q 55.71875 13.875 49.015625 6.21875 
Q 42.328125 -1.421875 30.609375 -1.421875 
Q 18.84375 -1.421875 12.171875 6.21875 
Q 5.515625 13.875 5.515625 27.296875 
Q 5.515625 40.765625 12.171875 48.375 
Q 18.84375 56 30.609375 56 
z
" id="DejaVuSans-6f"/>
     </defs>
     <g transform="translate(63.925 41.976562)scale(0.1 -0.1)">
      <use xlink:href="#DejaVuSans-70"/>
      <use x="63.476562" xlink:href="#DejaVuSans-72"/>
      <use x="104.558594" xlink:href="#DejaVuSans-65"/>
      <use x="166.082031" xlink:href="#DejaVuSans-76"/>
      <use x="225.261719" xlink:href="#DejaVuSans-69"/>
      <use x="253.044922" xlink:href="#DejaVuSans-73"/>
      <use x="305.144531" xlink:href="#DejaVuSans-61"/>
      <use x="366.423828" xlink:href="#DejaVuSans-6f"/>
     </g>
    </g>
   </g>
  </g>
 </g>
 <defs>
  <clipPath id="pbda18cdb71">
   <rect height="217.44" width="334.8" x="26.925" y="10.7"/>
  </clipPath>
 </defs>
</svg>
